<?xml version="1.0" ?><!DOCTYPE svg  PUBLIC '-//W3C//DTD SVG 1.1//EN'  'http://www.w3.org/Graphics/SVG/1.1/DTD/svg11.dtd'><svg height="512px" style="enable-background:new 0 0 512 512;" version="1.1" viewBox="0 0 512 512" width="512px" xml:space="preserve" xmlns="http://www.w3.org/2000/svg" xmlns:xlink="http://www.w3.org/1999/xlink"><g id="_x31_65_x2C__Birdhouse_x2C__Tweet_x2C__Twitter"><g><path d="M448.26,209.524L276.7,89.026c-12.42-8.72-28.98-8.714-41.4,0.006L63.74,209.521    C54.48,224.012,64.89,243,82.09,243H130l20,161.725C150,417.436,160.3,428,173,428h167c12.7,0,23-10.564,23-23.275L383,243h46.91    C447.11,243,457.52,224.015,448.26,209.524z" style="fill:#747371;"/><g><path d="M256,218.999c27.61,0,50,22.39,50,50c0,27.611-22.39,50-50,50c-27.61,0-50-22.389-50-50     C206,241.389,228.39,218.999,256,218.999z" style="fill:#D7DEED;"/></g></g></g><g id="Layer_1"/></svg>